<mxfile host="65bd71144e">
    <diagram id="xruD6DCJtmpyPsk1E_74" name="Page-1">
        <mxGraphModel dx="511" dy="430" grid="1" gridSize="10" guides="1" tooltips="1" connect="1" arrows="1" fold="1" page="1" pageScale="1" pageWidth="850" pageHeight="1100" math="0" shadow="0">
            <root>
                <mxCell id="0"/>
                <mxCell id="1" parent="0"/>
                <mxCell id="LHIRgGI2lpeROt6P3T2G-24" style="edgeStyle=orthogonalEdgeStyle;rounded=0;orthogonalLoop=1;jettySize=auto;html=1;exitX=0.5;exitY=1;exitDx=0;exitDy=0;" parent="1" source="LHIRgGI2lpeROt6P3T2G-1" target="LHIRgGI2lpeROt6P3T2G-2" edge="1">
                    <mxGeometry relative="1" as="geometry"/>
                </mxCell>
                <mxCell id="LHIRgGI2lpeROt6P3T2G-1" value="Chapter 1:&lt;br&gt;The Nemean Lion" style="rounded=1;whiteSpace=wrap;html=1;" parent="1" vertex="1">
                    <mxGeometry x="230" y="10" width="200" height="80" as="geometry"/>
                </mxCell>
                <mxCell id="LHIRgGI2lpeROt6P3T2G-26" style="edgeStyle=orthogonalEdgeStyle;rounded=0;orthogonalLoop=1;jettySize=auto;html=1;exitX=1;exitY=0.5;exitDx=0;exitDy=0;" parent="1" source="LHIRgGI2lpeROt6P3T2G-2" target="LHIRgGI2lpeROt6P3T2G-5" edge="1">
                    <mxGeometry relative="1" as="geometry"/>
                </mxCell>
                <mxCell id="LHIRgGI2lpeROt6P3T2G-27" style="edgeStyle=orthogonalEdgeStyle;rounded=0;orthogonalLoop=1;jettySize=auto;html=1;exitX=0;exitY=0.5;exitDx=0;exitDy=0;" parent="1" source="LHIRgGI2lpeROt6P3T2G-2" target="LHIRgGI2lpeROt6P3T2G-4" edge="1">
                    <mxGeometry relative="1" as="geometry"/>
                </mxCell>
                <mxCell id="LHIRgGI2lpeROt6P3T2G-2" value="Heracles encounters a band of wild looking men!" style="ellipse;whiteSpace=wrap;html=1;fillColor=#008a00;strokeColor=#005700;fontColor=#ffffff;" parent="1" vertex="1">
                    <mxGeometry x="245" y="120" width="170" height="120" as="geometry"/>
                </mxCell>
                <mxCell id="LHIRgGI2lpeROt6P3T2G-4" value="FIGHT!" style="ellipse;whiteSpace=wrap;html=1;" parent="1" vertex="1">
                    <mxGeometry x="160" y="240" width="120" height="80" as="geometry"/>
                </mxCell>
                <mxCell id="LHIRgGI2lpeROt6P3T2G-12" style="edgeStyle=orthogonalEdgeStyle;rounded=0;orthogonalLoop=1;jettySize=auto;html=1;exitX=0.5;exitY=1;exitDx=0;exitDy=0;" parent="1" source="LHIRgGI2lpeROt6P3T2G-5" target="LHIRgGI2lpeROt6P3T2G-7" edge="1">
                    <mxGeometry relative="1" as="geometry"/>
                </mxCell>
                <mxCell id="LHIRgGI2lpeROt6P3T2G-5" value="Talk to them" style="ellipse;whiteSpace=wrap;html=1;fillColor=#008a00;strokeColor=#005700;fontColor=#ffffff;" parent="1" vertex="1">
                    <mxGeometry x="400" y="240" width="120" height="80" as="geometry"/>
                </mxCell>
                <mxCell id="LHIRgGI2lpeROt6P3T2G-6" value="Alert boxes as &quot;comic book text bubbles&quot;" style="ellipse;whiteSpace=wrap;html=1;" parent="1" vertex="1">
                    <mxGeometry x="550" y="240" width="120" height="80" as="geometry"/>
                </mxCell>
                <mxCell id="LHIRgGI2lpeROt6P3T2G-10" style="edgeStyle=orthogonalEdgeStyle;rounded=0;orthogonalLoop=1;jettySize=auto;html=1;exitX=0;exitY=0;exitDx=0;exitDy=0;" parent="1" source="LHIRgGI2lpeROt6P3T2G-7" target="LHIRgGI2lpeROt6P3T2G-8" edge="1">
                    <mxGeometry relative="1" as="geometry"/>
                </mxCell>
                <mxCell id="LHIRgGI2lpeROt6P3T2G-17" style="edgeStyle=orthogonalEdgeStyle;rounded=0;orthogonalLoop=1;jettySize=auto;html=1;exitX=0.5;exitY=1;exitDx=0;exitDy=0;entryX=0.5;entryY=0;entryDx=0;entryDy=0;" parent="1" source="LHIRgGI2lpeROt6P3T2G-7" target="LHIRgGI2lpeROt6P3T2G-13" edge="1">
                    <mxGeometry relative="1" as="geometry"/>
                </mxCell>
                <mxCell id="LHIRgGI2lpeROt6P3T2G-7" value="Would you like to ask them what they're doing here?" style="ellipse;whiteSpace=wrap;html=1;fillColor=#008a00;strokeColor=#005700;fontColor=#ffffff;" parent="1" vertex="1">
                    <mxGeometry x="385" y="350" width="150" height="130" as="geometry"/>
                </mxCell>
                <mxCell id="LHIRgGI2lpeROt6P3T2G-11" style="edgeStyle=orthogonalEdgeStyle;rounded=0;orthogonalLoop=1;jettySize=auto;html=1;exitX=0;exitY=0;exitDx=0;exitDy=0;entryX=1;entryY=1;entryDx=0;entryDy=0;" parent="1" source="LHIRgGI2lpeROt6P3T2G-8" target="LHIRgGI2lpeROt6P3T2G-4" edge="1">
                    <mxGeometry relative="1" as="geometry"/>
                </mxCell>
                <mxCell id="LHIRgGI2lpeROt6P3T2G-8" value="No" style="ellipse;whiteSpace=wrap;html=1;aspect=fixed;" parent="1" vertex="1">
                    <mxGeometry x="290" y="330" width="80" height="80" as="geometry"/>
                </mxCell>
                <mxCell id="LHIRgGI2lpeROt6P3T2G-16" style="edgeStyle=orthogonalEdgeStyle;rounded=0;orthogonalLoop=1;jettySize=auto;html=1;exitX=0;exitY=0;exitDx=0;exitDy=0;entryX=0.5;entryY=1;entryDx=0;entryDy=0;" parent="1" source="LHIRgGI2lpeROt6P3T2G-13" target="LHIRgGI2lpeROt6P3T2G-8" edge="1">
                    <mxGeometry relative="1" as="geometry"/>
                </mxCell>
                <mxCell id="LHIRgGI2lpeROt6P3T2G-23" style="edgeStyle=orthogonalEdgeStyle;rounded=0;orthogonalLoop=1;jettySize=auto;html=1;exitX=0.5;exitY=1;exitDx=0;exitDy=0;entryX=0.5;entryY=0;entryDx=0;entryDy=0;" parent="1" source="LHIRgGI2lpeROt6P3T2G-13" target="LHIRgGI2lpeROt6P3T2G-19" edge="1">
                    <mxGeometry relative="1" as="geometry"/>
                </mxCell>
                <mxCell id="LHIRgGI2lpeROt6P3T2G-13" value="Say their village was destroyed by the lion.&amp;nbsp; Do you believe them?" style="ellipse;whiteSpace=wrap;html=1;fillColor=#008a00;strokeColor=#005700;fontColor=#ffffff;" parent="1" vertex="1">
                    <mxGeometry x="390" y="500" width="140" height="100" as="geometry"/>
                </mxCell>
                <mxCell id="LHIRgGI2lpeROt6P3T2G-19" value="They tell you they've heard that the lion can only be defeated with bare hands.&amp;nbsp; Do you let them go on their way?" style="ellipse;whiteSpace=wrap;html=1;fillColor=#008a00;strokeColor=#005700;fontColor=#ffffff;" parent="1" vertex="1">
                    <mxGeometry x="385" y="630" width="145" height="130" as="geometry"/>
                </mxCell>
                <mxCell id="LHIRgGI2lpeROt6P3T2G-20" value="Unlock attack:strangle" style="ellipse;whiteSpace=wrap;html=1;aspect=fixed;" parent="1" vertex="1">
                    <mxGeometry x="420" y="780" width="80" height="80" as="geometry"/>
                </mxCell>
            </root>
        </mxGraphModel>
    </diagram>
</mxfile>